<?xml version="1.0" encoding="UTF-8"?>
<svg width="16px" height="15px" viewBox="0 0 16 15" version="1.1" xmlns="http://www.w3.org/2000/svg" xmlns:xlink="http://www.w3.org/1999/xlink">
    <!-- Generator: Sketch 49.3 (51167) - http://www.bohemiancoding.com/sketch -->
    <title>icon-bulleted-list</title>
    <desc>Created with Sketch.</desc>
    <defs></defs>
    <g id="SBG-Icon-Library" stroke="none" stroke-width="1" fill="none" fill-rule="evenodd">
        <g id="Content" transform="translate(-291.000000, -315.000000)" fill="#58585B">
            <g id="Bulleted-List" transform="translate(0.000000, 289.000000)">
                <g id="List-View" transform="translate(291.000000, 26.000000)">
                    <path d="M15.2727273,2.18181818 L5.09090909,2.18181818 C4.68945455,2.18181818 4.36363636,1.856 4.36363636,1.45454545 C4.36363636,1.05309091 4.68945455,0.727272727 5.09090909,0.727272727 L15.2727273,0.727272727 C15.6741818,0.727272727 16,1.05309091 16,1.45454545 C16,1.856 15.6741818,2.18181818 15.2727273,2.18181818" id="Fill-1"></path>
                    <path d="M15.2727273,13.8181818 L5.09090909,13.8181818 C4.68945455,13.8181818 4.36363636,13.4923636 4.36363636,13.0909091 C4.36363636,12.6894545 4.68945455,12.3636364 5.09090909,12.3636364 L15.2727273,12.3636364 C15.6741818,12.3636364 16,12.6894545 16,13.0909091 C16,13.4923636 15.6741818,13.8181818 15.2727273,13.8181818" id="Fill-3"></path>
                    <path d="M15.2727273,8 L5.09090909,8 C4.68945455,8 4.36363636,7.67418182 4.36363636,7.27272727 C4.36363636,6.87127273 4.68945455,6.54545455 5.09090909,6.54545455 L15.2727273,6.54545455 C15.6741818,6.54545455 16,6.87127273 16,7.27272727 C16,7.67418182 15.6741818,8 15.2727273,8" id="Fill-5"></path>
                    <path d="M2.90909091,1.45454545 C2.90909091,2.25745455 2.25745455,2.90909091 1.45454545,2.90909091 C0.651636364,2.90909091 0,2.25745455 0,1.45454545 C0,0.651636364 0.651636364,0 1.45454545,0 C2.25745455,0 2.90909091,0.651636364 2.90909091,1.45454545" id="Fill-7"></path>
                    <path d="M2.90909091,7.27272727 C2.90909091,8.07563636 2.25745455,8.72727273 1.45454545,8.72727273 C0.651636364,8.72727273 0,8.07563636 0,7.27272727 C0,6.46981818 0.651636364,5.81818182 1.45454545,5.81818182 C2.25745455,5.81818182 2.90909091,6.46981818 2.90909091,7.27272727" id="Fill-9"></path>
                    <path d="M2.90909091,13.0909091 C2.90909091,13.8938182 2.25745455,14.5454545 1.45454545,14.5454545 C0.651636364,14.5454545 0,13.8938182 0,13.0909091 C0,12.288 0.651636364,11.6363636 1.45454545,11.6363636 C2.25745455,11.6363636 2.90909091,12.288 2.90909091,13.0909091" id="Fill-11"></path>
                </g>
            </g>
        </g>
    </g>
</svg>