<?xml version="1.0" encoding="UTF-8"?>
<svg width="10px" height="10px" viewBox="0 0 10 10" version="1.1" xmlns="http://www.w3.org/2000/svg" xmlns:xlink="http://www.w3.org/1999/xlink">
    <!-- Generator: Sketch 49.3 (51167) - http://www.bohemiancoding.com/sketch -->
    <title>icon-close-10px</title>
    <desc>Created with Sketch.</desc>
    <defs></defs>
    <g id="SBG-Icon-Library" stroke="none" stroke-width="1" fill="none" fill-rule="evenodd">
        <g id="Actions" transform="translate(-330.000000, -550.000000)">
            <g id="Cancel/Close" transform="translate(0.000000, 520.000000)"></g>
            <path d="M339,559.99963 C338.733,559.99963 338.482,559.89563 338.293,559.70663 L335,556.41363 L331.708,559.70663 C331.329,560.08363 330.668,560.08363 330.292,559.70563 C330.104,559.51863 330,559.26763 330,558.99963 C330,558.73163 330.104,558.48063 330.294,558.29263 L333.586,554.99963 L330.293,551.70663 C330.104,551.51863 330,551.26763 330,550.99963 C330,550.73263 330.104,550.48163 330.293,550.29263 C330.682,549.90363 331.316,549.90063 331.707,550.29263 L335,553.58563 L338.293,550.29263 C338.683,549.90363 339.316,549.90263 339.707,550.29263 C340.096,550.68463 340.096,551.31763 339.707,551.70663 L336.414,554.99963 L339.707,558.29263 C340.097,558.68263 340.097,559.31663 339.707,559.70663 C339.518,559.89563 339.267,559.99963 339,559.99963" id="Page-1" fill="#58585B"></path>
        </g>
    </g>
</svg>