<svg xmlns="http://www.w3.org/2000/svg" width="16" height="14" viewBox="0 0 16 14">
  <path fill="#58585B" d="M15,0.33999998 L1,0.33999998 C0.44771525,0.33999998 0,0.78771525 0,1.33999998 L0,9.33999998 C0,9.89228475 0.44771525,10.34 1,10.34 L7.47,10.34 L7.47,12.56 L5.55,12.82 C5.27385763,12.82 5.05,13.0438576 5.05,13.32 C5.05,13.5961424 5.27385763,13.82 5.55,13.82 L10.55,13.82 C10.8239085,13.8146799 11.0446799,13.5939085 11.05,13.32 C11.0527521,13.1865671 11.0009579,13.0577849 10.9065865,12.9634135 C10.8122151,12.8690421 10.6834329,12.8172479 10.55,12.82 L8.49,12.55 L8.49,10.36 L15,10.36 C15.5522847,10.36 16,9.91228475 16,9.36 L16,1.36 C16.0053744,1.09133538 15.9023949,0.831813056 15.7142729,0.639928569 C15.5261508,0.448044082 15.2687184,0.33999998 15,0.33999998 Z M15,9.34 L1,9.34 L1,1.34 L15,1.34 L15,9.34 Z"/>
</svg>
