<svg xmlns="http://www.w3.org/2000/svg" xmlns:xlink="http://www.w3.org/1999/xlink" width="19" height="16" viewBox="0 0 19 16">
  <defs>
    <path id="mask-copy-a" d="M672,1973.0601 C672,1973.47404 672.32676,1973.81 672.729375,1973.81 L681.078288,1973.81 C681.481875,1973.81 681.807662,1973.47404 681.807662,1973.0601 L681.807662,1969.42556 C681.807662,1969.01162 681.481875,1968.67566 681.078288,1968.67566 C680.675673,1968.67566 680.348913,1969.01162 680.348913,1969.42556 L680.348913,1972.31019 L673.45875,1972.31019 L673.45875,1959.74981 L680.348913,1959.74981 L680.348913,1962.53645 C680.348913,1962.9504 680.675673,1963.28635 681.078288,1963.28635 C681.481875,1963.28635 681.807662,1962.9504 681.807662,1962.53645 L681.807662,1958.9999 C681.807662,1958.58596 681.481875,1958.25 681.078288,1958.25 L672.729375,1958.25 C672.32676,1958.25 672,1958.58596 672,1958.9999 L672,1973.0601 Z M684.516075,1970.06048 C684.27295,1970.23746 684.073587,1970.13047 684.073587,1969.82451 L684.073587,1966.85689 L676.38014,1966.85689 C675.99892,1966.85689 675.690637,1966.53993 675.690637,1966.14599 C675.690637,1965.75404 675.99892,1965.43508 676.38014,1965.43508 L684.073587,1965.43508 L684.073587,1962.46946 C684.073587,1962.1625 684.27295,1962.05551 684.516075,1962.23249 L690.278137,1966.14299 L684.516075,1970.06048 Z"/>
  </defs>
  <use fill="#58585B" fill-rule="evenodd" transform="translate(-672 -1958)" xlink:href="#mask-copy-a"/>
</svg>
