<?xml version="1.0" encoding="UTF-8"?>
<svg width="16px" height="16px" viewBox="0 0 16 16" version="1.1" xmlns="http://www.w3.org/2000/svg" xmlns:xlink="http://www.w3.org/1999/xlink">
    <!-- Generator: Sketch 49.3 (51167) - http://www.bohemiancoding.com/sketch -->
    <title>icon-help</title>
    <desc>Created with Sketch.</desc>
    <defs></defs>
    <g id="SBG-Icon-Library" stroke="none" stroke-width="1" fill="none" fill-rule="evenodd">
        <g id="Alerts/Notifications" transform="translate(-292.000000, -606.000000)" fill="#58585B">
            <g id="Help" transform="translate(0.000000, 585.000000)">
                <g id="help" transform="translate(292.000000, 21.000000)">
                    <path d="M9.49866667,7.32486667 C9.498,7.32553333 9.49733333,7.32553333 9.49733333,7.3262 C9.49666667,7.32686667 9.49666667,7.32753333 9.496,7.3282 L8.66666667,8.25486667 L8.66666667,8.66686667 C8.66666667,9.03486667 8.368,9.33353333 8,9.33353333 C7.632,9.33353333 7.33333333,9.03486667 7.33333333,8.66686667 L7.33333333,7.74553333 L8.49933333,6.4422 C8.60733333,6.31953333 8.66666667,6.16286667 8.66666667,6.0002 C8.66666667,5.6322 8.36733333,5.33353333 8,5.33353333 C7.63266667,5.33353333 7.33333333,5.6322 7.33333333,6.0002 C7.33333333,6.3682 7.03466667,6.66686667 6.66666667,6.66686667 C6.29866667,6.66686667 6,6.3682 6,6.0002 C6,4.89686667 6.89733333,4.0002 8,4.0002 C9.10266667,4.0002 10,4.89686667 10,6.0002 C10,6.4882 9.822,6.9582 9.49866667,7.32486667 M8,12.0002 C7.632,12.0002 7.33333333,11.7015333 7.33333333,11.3335333 C7.33333333,10.9648667 7.632,10.6668667 8,10.6668667 C8.368,10.6668667 8.66666667,10.9648667 8.66666667,11.3335333 C8.66666667,11.7015333 8.368,12.0002 8,12.0002 M8,0.0002 C3.582,0.0002 0,3.58153333 0,8.0002 C0,12.4182 3.582,16.0002 8,16.0002 C12.418,16.0002 16,12.4182 16,8.0002 C16,3.58153333 12.418,0.0002 8,0.0002" id="Fill-1"></path>
                </g>
            </g>
        </g>
    </g>
</svg>