<svg xmlns="http://www.w3.org/2000/svg" xmlns:xlink="http://www.w3.org/1999/xlink" width="19" height="16" viewBox="0 0 19 16">
  <defs>
    <path id="import-a" d="M18.7899,15.0122 L18.7899,0.9502 C18.7899,0.5362 18.4539,0.2002 18.0399,0.2002 L6.4549,0.2002 C6.0399,0.2002 5.7049,0.5362 5.7049,0.9502 L5.7049,4.5852 C5.7049,4.9992 6.0399,5.3352 6.4549,5.3352 C6.8689,5.3352 7.2049,4.9992 7.2049,4.5852 L7.2049,1.7002 L17.2899,1.7002 L17.2899,14.2622 L7.2049,14.2622 L7.2049,11.4752 C7.2049,11.0612 6.8689,10.7252 6.4549,10.7252 C6.0399,10.7252 5.7049,11.0612 5.7049,11.4752 L5.7049,15.0122 C5.7049,15.4262 6.0399,15.7622 6.4549,15.7622 L18.0399,15.7622 C18.4539,15.7622 18.7899,15.4262 18.7899,15.0122 L18.7899,15.0122 Z M9.5749,12.0122 C9.3249,12.1892 9.1199,12.0822 9.1199,11.7762 L9.1199,8.8082 L1.2089,8.8082 C0.8169,8.8082 0.4999,8.4912 0.4999,8.0972 C0.4999,7.7052 0.8169,7.3862 1.2089,7.3862 L9.1199,7.3862 L9.1199,4.4202 C9.1199,4.1132 9.3249,4.0062 9.5749,4.1832 L15.4999,8.0942 L9.5749,12.0122 Z"/>
  </defs>
  <use fill="#58585B" fill-rule="evenodd" xlink:href="#import-a"/>
</svg>
