<?xml version="1.0" encoding="utf-8"?>
<!-- Generator: Adobe Illustrator 22.1.0, SVG Export Plug-In . SVG Version: 6.00 Build 0)  -->
<svg version="1.1" id="Layer_1" xmlns="http://www.w3.org/2000/svg" xmlns:xlink="http://www.w3.org/1999/xlink" x="0px" y="0px"
	 viewBox="0 0 16 16" style="enable-background:new 0 0 16 16;" xml:space="preserve">
<style type="text/css">
	.st0{fill:#58585B;}
</style>
<g>
	<path class="st0" d="M14.5,5.5h-3.9V6v0.5h3.9C14.7,6.5,15,6.7,15,7v7.5c0,0.3-0.2,0.5-0.5,0.5H7c-0.3,0-0.5-0.2-0.5-0.5v-3.9H6
		H5.5v3.9C5.5,15.3,6.2,16,7,16h7.5c0.8,0,1.5-0.7,1.5-1.5V7C16,6.2,15.3,5.5,14.5,5.5z"/>
	<path class="st0" d="M9.5,8.5V1c0-0.6-0.5-1-1-1H1C0.5,0,0,0.5,0,1v7.5c0,0.6,0.5,1,1,1h7.5C9,9.5,9.5,9,9.5,8.5z"/>
</g>
</svg>
