<?xml version="1.0" encoding="UTF-8"?>
<svg width="14px" height="16px" viewBox="0 0 14 16" version="1.1" xmlns="http://www.w3.org/2000/svg" xmlns:xlink="http://www.w3.org/1999/xlink">
    <!-- Generator: Sketch 49.3 (51167) - http://www.bohemiancoding.com/sketch -->
    <title>icon-lock</title>
    <desc>Created with Sketch.</desc>
    <defs></defs>
    <g id="SBG-Icon-Library" stroke="none" stroke-width="1" fill="none" fill-rule="evenodd">
        <g id="Actions" transform="translate(-294.000000, -2462.000000)" fill="#58585B">
            <g id="Lock" transform="translate(0.000000, 2435.000000)">
                <g transform="translate(294.000000, 27.000000)" id="Fill-1">
                    <path d="M2.66666667,5.33466667 C2.66666667,3.128 4.462,1.33333333 6.668,1.33333333 C8.87533333,1.33333333 10.6666667,3.128 10.6666667,5.33466667 L10.6666667,7.33533333 L2.66666667,7.33533333 L2.66666667,5.33466667 Z M12,7.33533333 L12,5.33466667 C12,2.40066667 9.60266667,0 6.668,0 C3.734,0 1.33333333,2.40066667 1.33333333,5.33466667 L1.33333333,7.33533333 L0,7.33533333 L0,15.3333333 C0,15.7013333 0.298666667,16 0.666666667,16 L12.6666667,16 C13.0346667,16 13.3333333,15.7013333 13.3333333,15.3333333 L13.3333333,7.33533333 L12,7.33533333 Z"></path>
                </g>
            </g>
        </g>
    </g>
</svg>