<svg xmlns="http://www.w3.org/2000/svg" width="14" height="16" viewBox="0 0 14 16">
  <path fill="#58585B" fill-rule="evenodd" d="M11.7051,3.8054 L10.5711,4.6054 C11.8391,5.6394 12.6721,7.2404 12.6721,9.0074 C12.6721,12.1424 10.1381,14.6764 7.0031,14.6764 C3.8681,14.6764 1.3341,12.1424 1.3341,9.0074 C1.3341,5.8734 3.8661,3.3404 7.0001,3.3384 L7.0001,5.0954 C7.0001,5.2644 7.1911,5.3644 7.3301,5.2664 L10.9951,2.6794 L7.3311,0.0394 C7.1931,-0.0596 7.0001,0.0384 7.0001,0.2094 L7.0001,2.0044 C3.1331,2.0064 0.0001,5.1394 0.0001,9.0074 C0.0001,12.8754 3.1351,16.0104 7.0031,16.0104 C10.8711,16.0104 14.0061,12.8754 14.0061,9.0074 C14.0061,6.9394 13.1391,5.0724 11.7051,3.8054"/>
</svg>
