<?xml version="1.0" encoding="UTF-8"?>
<svg width="16px" height="15px" viewBox="0 0 16 15" version="1.1" xmlns="http://www.w3.org/2000/svg" xmlns:xlink="http://www.w3.org/1999/xlink">
    <!-- Generator: Sketch 49.3 (51167) - http://www.bohemiancoding.com/sketch -->
    <title>icon-sync</title>
    <desc>Created with Sketch.</desc>
    <defs></defs>
    <g id="SBG-Icon-Library" stroke="none" stroke-width="1" fill="none" fill-rule="evenodd">
        <g id="Actions" transform="translate(-292.000000, -3937.000000)" fill="#58585B">
            <g id="Sync" transform="translate(0.000000, 3905.000000)">
                <g id="icn_sync" transform="translate(292.000000, 32.000000)">
                    <path d="M15.3688533,6.79402667 L14.27232,6.64896 C14.3117867,6.93696 14.33952,7.22922667 14.33952,7.52789333 C14.33952,11.0574933 11.46912,13.9278933 7.93952,13.9278933 C6.28618667,13.9278933 4.78112,13.29536 3.64618667,12.2628267 L5.03285333,10.76096 C5.23338667,10.54336 5.14805333,10.36416 4.88458667,10.32256 L0.00032,9.68042667 L1.00192,14.5262933 C1.06378667,14.7854933 1.27498667,14.8292267 1.45098667,14.63936 L2.93365333,13.0340267 C4.25952,14.2414933 6.00778667,14.99456 7.93952,14.99456 C12.0568533,14.99456 15.4061867,11.6452267 15.4061867,7.52789333 C15.4061867,7.28042667 15.39232,7.03616 15.3688533,6.79402667" id="Fill-4"></path>
                    <path d="M14.9986133,0.53984 C14.93568,0.28064 14.7255467,0.237973333 14.5495467,0.42784 L13.0423467,2.05877333 C11.7111467,0.83104 9.94901333,0.0673066667 8.00021333,0.0673066667 C3.88288,0.0673066667 0.533546667,3.41557333 0.533546667,7.53397333 C0.533546667,7.78144 0.547413333,8.02570667 0.57088,8.26784 L1.66741333,8.41184 C1.62794667,8.12384 1.60021333,7.83157333 1.60021333,7.53397333 C1.60021333,4.00437333 4.47061333,1.13397333 8.00021333,1.13397333 C9.66954667,1.13397333 11.19168,1.77717333 12.3319467,2.82890667 L10.9666133,4.30624 C10.7671467,4.52170667 10.8514133,4.70197333 11.11488,4.74357333 L16.0002133,5.38570667 L14.9986133,0.53984 Z" id="Fill-1"></path>
                </g>
            </g>
        </g>
    </g>
</svg>