<?xml version="1.0" encoding="UTF-8"?>
<svg width="14px" height="16px" viewBox="0 0 14 16" version="1.1" xmlns="http://www.w3.org/2000/svg" xmlns:xlink="http://www.w3.org/1999/xlink">
    <!-- Generator: Sketch 49.3 (51167) - http://www.bohemiancoding.com/sketch -->
    <title>icon-unlock</title>
    <desc>Created with Sketch.</desc>
    <defs></defs>
    <g id="SBG-Icon-Library" stroke="none" stroke-width="1" fill="none" fill-rule="evenodd">
        <g id="Actions" transform="translate(-315.000000, -2462.000000)">
            <g id="Lock" transform="translate(0.000000, 2435.000000)"></g>
            <path d="M317.666667,2469.36667 L317.666667,2467.36667 C317.666667,2465.16667 319.466667,2463.36667 321.666667,2463.36667 C323.3,2463.36667 324.8,2464.4 325.4,2465.93333 C325.533333,2466.26667 325.933333,2466.43333 326.266667,2466.3 C326.6,2466.16667 326.766667,2465.76667 326.633333,2465.43333 C325.833333,2463.36667 323.833333,2462 321.666667,2462 C318.733333,2462 316.333333,2464.4 316.333333,2467.33333 L316.333333,2469.33333 L315,2469.33333 L315,2477.33333 C315,2477.7 315.3,2478 315.666667,2478 L327.666667,2478 C328.033333,2478 328.333333,2477.7 328.333333,2477.33333 L328.333333,2469.33333 L317.666667,2469.33333 L317.666667,2469.36667 Z" id="Shape" fill="#58585B"></path>
        </g>
    </g>
</svg>