<?xml version="1.0" encoding="UTF-8"?>
<svg width="16px" height="15px" viewBox="0 0 16 15" version="1.1" xmlns="http://www.w3.org/2000/svg" xmlns:xlink="http://www.w3.org/1999/xlink">
    <!-- Generator: Sketch 49.3 (51167) - http://www.bohemiancoding.com/sketch -->
    <title>icon-unsynced</title>
    <desc>Created with Sketch.</desc>
    <defs></defs>
    <g id="SBG-Icon-Library" stroke="none" stroke-width="1" fill="none" fill-rule="evenodd">
        <g id="Alerts/Notifications" transform="translate(-289.000000, -1178.000000)" fill="#58585B">
            <g id="Unsynced" transform="translate(0.000000, 1153.000000)">
                <g id="icn_unsynced" transform="translate(289.000000, 25.000000)">
                    <path d="M8.0447,8.1049 L7.9557,8.1049 C7.5867,8.1049 7.2887,7.8059 7.2887,7.4379 L7.2887,3.4479 C7.2887,3.0799 7.5867,2.7819 7.9557,2.7819 L8.0447,2.7819 C8.4127,2.7819 8.7117,3.0799 8.7117,3.4479 L8.7117,7.4379 C8.7117,7.8059 8.4127,8.1049 8.0447,8.1049" id="Fill-1"></path>
                    <path d="M8.7112,10.6083 C8.7112,11.0013 8.3932,11.3193 8.0002,11.3193 C7.6072,11.3193 7.2892,11.0013 7.2892,10.6083 C7.2892,10.2153 7.6072,9.8973 8.0002,9.8973 C8.3932,9.8973 8.7112,10.2153 8.7112,10.6083" id="Fill-3"></path>
                    <path d="M14.9988,0.4736 C14.9358,0.2146 14.7258,0.1706 14.5488,0.3606 L13.1208,1.9066 C11.8018,0.7316 10.0788,-0.0004 8.1768,-0.0004 C4.0598,-0.0004 0.7098,3.3496 0.7098,7.4666 C0.7098,7.7146 0.7238,7.9586 0.7478,8.2006 L1.8438,8.3456 C1.8048,8.0576 1.7768,7.7656 1.7768,7.4666 C1.7768,3.9376 4.6478,1.0666 8.1768,1.0666 C9.7998,1.0666 11.2778,1.6806 12.4068,2.6806 L10.9668,4.2396 C10.7668,4.4556 10.8518,4.6356 11.1158,4.6766 L15.9998,5.3196 L14.9988,0.4736 Z" id="Fill-5"></path>
                    <path d="M15.2532,6.727 L14.1562,6.582 C14.1952,6.871 14.2232,7.163 14.2232,7.461 C14.2232,10.991 11.3532,13.861 7.8232,13.861 C6.2012,13.861 4.7252,13.248 3.5962,12.249 L5.0332,10.694 C5.2332,10.477 5.1482,10.297 4.8842,10.255 L0.0002,9.614 L1.0022,14.46 C1.0642,14.719 1.2742,14.762 1.4512,14.573 L2.8822,13.023 C4.2012,14.198 5.9222,14.928 7.8232,14.928 C11.9402,14.928 15.2902,11.579 15.2902,7.461 C15.2902,7.213 15.2762,6.969 15.2532,6.727" id="Fill-8"></path>
                </g>
            </g>
        </g>
    </g>
</svg>